<svg width="44" height="44" viewBox="0 0 44 44" fill="none" xmlns="http://www.w3.org/2000/svg">
    <path d="M42.2716 31.7403C41.2021 30.6705 39.7218 30.0073 38.088 30.0073C37.7312 30.0073 37.3832 30.0406 37.0461 30.1051C36.3593 30.2325 35.7144 30.4802 35.1237 30.8119C28.7169 34.4139 23.9405 34.8207 22.0303 34.8207C22.0093 34.8207 21.9902 34.8207 21.9709 34.8207C20.5542 34.8207 17.5583 34.59 13.4978 33.0086C13.4141 33.9213 13.3522 34.8767 13.3411 35.9157C13.328 37.1058 13.0538 38.2105 12.5522 39.2182C17.0869 37.292 20.4479 37.0036 21.9709 37.0036C21.9902 37.0036 22.0093 37.0036 22.0303 37.0036C23.9405 37.0036 28.7169 37.4124 35.1237 41.0142C35.7144 41.3458 36.3593 41.5935 37.0461 41.7211C37.3832 41.7836 37.7312 41.8171 38.088 41.8171C39.7218 41.8171 41.2021 41.1556 42.2716 40.0858C43.3396 39.016 44 37.5415 44 35.9113C44 34.2831 43.3396 32.8084 42.2716 31.7403Z"
          fill="white"/>
    <path d="M18.2825 14.5092C17.7311 14.1837 17.2287 13.8015 16.7909 13.374C16.4177 13.0121 16.1001 12.6047 15.815 12.1771C15.2182 17.0617 13.7866 20.1115 13.0265 21.428C13.0159 21.4454 13.0071 21.4613 12.9968 21.4804C12.3414 22.6147 10.8419 24.8224 7.91813 27.304C6.58467 28.4367 4.95398 29.6269 2.97217 30.7979C2.51963 31.0668 2.0931 31.3879 1.71037 31.7681C1.36258 32.1155 1.05161 32.5118 0.794599 32.9585C0.139232 34.0893 -0.0983383 35.3459 0.0362304 36.5502C0.231967 38.3564 1.25958 40.0476 2.95644 41.0265C3.41618 41.2916 3.89504 41.4873 4.38438 41.6182C6.13027 42.0858 7.98966 41.7193 9.4246 40.6669C10.0607 40.1975 10.613 39.592 11.0341 38.8644C11.5758 37.9269 11.8083 36.9058 11.8189 35.8991C11.8974 28.5571 13.9334 24.222 14.8895 22.5712C14.8999 22.5536 14.9086 22.5362 14.9191 22.5204C15.6251 21.2971 17.3099 18.8294 20.7004 16.1158C20.7077 16.1099 20.7171 16.1038 20.7244 16.0979C19.9749 15.5691 19.1777 15.0381 18.2825 14.5092Z"
          fill="white"/>
    <path d="M17.8536 12.2868C18.2188 12.6428 18.626 12.9465 19.0576 13.2013C25.3842 16.9395 28.1263 20.8662 29.0822 22.5205C29.0926 22.5363 29.1013 22.5537 29.1101 22.5713C29.8187 23.7949 31.1164 26.502 31.775 30.8062C32.6095 30.422 33.4699 29.9977 34.3776 29.4874C35.1421 29.0581 35.9461 28.7631 36.7684 28.6113C37.0513 28.5572 37.3513 28.5474 37.6476 28.5287C33.6999 25.5663 31.7654 22.7972 31.0028 21.4805C30.994 21.4614 30.9836 21.4455 30.9749 21.4281C30.0188 19.7754 27.9828 15.4421 27.9059 8.10187C27.9007 7.601 27.8395 7.09849 27.7155 6.60449C27.5879 6.10176 27.3939 5.60624 27.1196 5.13504C26.3033 3.72318 24.9908 2.77555 23.5298 2.38474C22.1318 2.00941 20.5939 2.14554 19.2255 2.87154C17.7854 3.63758 16.7106 4.98333 16.2877 6.55736C15.8962 8.01634 16.0622 9.6254 16.8783 11.0407C17.151 11.5119 17.4812 11.9255 17.8536 12.2868Z"
          fill="white"/>
</svg>
